<svg width="40" height="40" viewBox="0 0 40 40" fill="none" xmlns="http://www.w3.org/2000/svg">
<rect width="40" height="40" rx="5" fill="#ECF2F9"/>
<path d="M7.84766 24.8367L7.84766 15.5798L9.26391 15.0144V18.6642H9.34917C9.43128 18.5107 9.54969 18.3333 9.70442 18.1318C9.85915 17.9304 10.0739 17.7545 10.3486 17.6043C10.6233 17.4508 10.9865 17.3741 11.438 17.3741C12.0254 17.3741 12.5496 17.5243 13.0106 17.8249C13.4716 18.1254 13.8332 18.5587 14.0953 19.1246C14.3605 19.6905 14.4932 20.3716 14.4932 21.1677C14.4932 21.9639 14.3621 22.6465 14.1 23.2156C13.8379 23.7816 13.478 24.218 13.0201 24.5249C12.5622 24.8287 12.0396 24.9806 11.4522 24.9806C11.0102 24.9806 10.6486 24.9054 10.3676 24.7551C10.0897 24.6049 9.87178 24.429 9.7139 24.2276C9.55601 24.0261 9.43443 23.8471 9.34917 23.6904H9.23076V24.8367H7.84766ZM9.23549 21.1533C9.23549 21.6713 9.3097 22.1253 9.45812 22.5154C9.60653 22.9055 9.82126 23.2108 10.1023 23.4314C10.3833 23.6489 10.7275 23.7576 11.1349 23.7576C11.558 23.7576 11.9117 23.6441 12.1959 23.4171C12.4801 23.1868 12.6948 22.8751 12.8401 22.4818C12.9885 22.0886 13.0627 21.6457 13.0627 21.1533C13.0627 20.6673 12.9901 20.2309 12.8448 19.844C12.7027 19.4571 12.488 19.1518 12.2006 18.928C11.9164 18.7042 11.5612 18.5922 11.1349 18.5922C10.7244 18.5922 10.377 18.6994 10.0928 18.9136C9.81179 19.1278 9.59864 19.4268 9.45338 19.8104C9.30812 20.1941 9.23549 20.6417 9.23549 21.1533Z" fill="#121212"/>
<path d="M18.3613 24.9854C17.6444 24.9854 17.0271 24.8303 16.5092 24.5201C15.9945 24.2068 15.5966 23.7672 15.3156 23.2012C15.0377 22.6321 14.8988 21.9655 14.8988 21.2013C14.8988 20.4467 15.0377 19.7817 15.3156 19.2061C15.5966 18.6306 15.9882 18.1814 16.4903 17.8585C16.9955 17.5355 17.586 17.3741 18.2618 17.3741C18.6723 17.3741 19.0702 17.4428 19.4554 17.5803C19.8407 17.7178 20.1864 17.9336 20.4928 18.2277C20.7991 18.5219 21.0406 18.904 21.2175 19.374C21.3943 19.8408 21.4827 20.4083 21.4827 21.0766V21.585H17.022L17.426 20.5107H20.0949C20.0949 20.1334 20.0191 19.7992 19.8675 19.5083C19.7159 19.2141 19.5028 18.9823 19.2281 18.8129C18.9565 18.6434 18.6376 18.5587 18.2713 18.5587C17.8734 18.5587 17.526 18.6578 17.2292 18.856C16.9355 19.0511 16.7082 19.3069 16.5471 19.6234C16.3892 19.9367 16.3103 20.2773 16.3103 20.6449V21.4843C16.3103 21.9766 16.3956 22.3955 16.5661 22.7408C16.7397 23.0861 16.9813 23.3499 17.2908 23.5322C17.6002 23.7112 17.9618 23.8007 18.3755 23.8007C18.6439 23.8007 18.8886 23.7624 19.1096 23.6856C19.3307 23.6057 19.5217 23.4874 19.6828 23.3307C19.8438 23.1741 19.967 22.9806 20.0522 22.7504L21.3843 22.7408C21.3146 23.3307 21.0927 23.7448 20.8148 24.0453C20.5401 24.3427 20.1943 24.5745 19.7775 24.7408C19.3638 24.9038 18.8918 24.9854 18.3613 24.9854Z" fill="#121212"/>
<path d="M25.3702 24.9854C24.6534 24.9854 24.036 24.8303 23.5182 24.5201C23.0035 24.2068 22.6056 23.7672 22.3245 23.2012C22.0467 22.6321 21.9077 21.9655 21.9077 21.2013C21.9077 20.4467 22.0467 19.7817 22.3245 19.2061C22.6056 18.6306 22.9971 18.1814 23.4992 17.8585C24.0045 17.5355 24.595 17.3741 25.2707 17.3741C25.6812 17.3741 26.0791 17.4428 26.4644 17.5803C26.8496 17.7178 27.1954 17.9336 27.5017 18.2277C27.808 18.5219 28.0496 18.904 28.2264 19.374C28.4032 19.8408 28.4917 20.4083 28.4917 21.0766V21.585H18.3755V20.5107H27.1038C27.1038 20.1334 27.028 19.7992 26.8765 19.5083C26.7249 19.2141 26.5117 18.9823 26.237 18.8129C25.9654 18.6434 25.6465 18.5587 25.2802 18.5587C24.8823 18.5587 24.535 18.6578 24.2381 18.856C23.9445 19.0511 23.7171 19.3069 23.5561 19.6234C23.3982 19.9367 23.3192 20.2773 23.3192 20.6449V21.4843C23.3192 21.9766 23.4045 22.3955 23.575 22.7408C23.7487 23.0861 23.9903 23.3499 24.2997 23.5322C24.6092 23.7112 24.9707 23.8007 25.3844 23.8007C25.6528 23.8007 25.8975 23.7624 26.1186 23.6856C26.3396 23.6057 26.5307 23.4874 26.6917 23.3307C26.8528 23.1741 26.9759 22.9806 27.0612 22.7504L28.399 22.7408C28.3293 23.2819 28.1017 23.7448 27.8238 24.0453C27.5491 24.3427 27.2033 24.5745 26.7865 24.7408C26.3728 24.9038 25.9007 24.9854 25.3702 24.9854Z" fill="#121212"/>
<path d="M31.5539 17.47L32.0192 18.621H29.1109V17.47H31.5539ZM29.1109 16.2704L30.5272 15.705V22.6737C30.5272 22.9518 30.5682 23.1613 30.6503 23.3019C30.7324 23.4394 30.8382 23.5338 30.9677 23.5849C31.1003 23.6329 31.244 23.6569 31.3987 23.6569C31.5124 23.6569 31.6119 23.6489 31.6971 23.6329C31.7824 23.6169 31.8487 23.6041 31.8961 23.5945L32.1519 24.7791C32.0698 24.8111 31.9529 24.8431 31.8013 24.875C31.6498 24.9102 31.4603 24.9294 31.2329 24.9326C30.8603 24.939 30.513 24.8719 30.1909 24.7312C29.8688 24.5905 29.6083 24.3731 29.4093 24.0789C29.2104 23.7847 29.1109 23.4155 29.1109 22.971V16.2704Z" fill="#121212"/>
</svg>
