<svg width="40" height="40" viewBox="0 0 40 40" fill="none" xmlns="http://www.w3.org/2000/svg">
<rect width="40" height="40" rx="5" fill="#F4F4FF"/>
<rect x="9.18875" y="9.18875" width="21.6225" height="21.6225" rx="3.94875" fill="url(#paint0_linear_571_6648)"/>
<rect x="9.18875" y="9.18875" width="21.6225" height="21.6225" rx="3.94875" stroke="url(#paint1_linear_571_6648)" stroke-width="0.8775"/>
<mask id="path-3-inside-1_571_6648" fill="white">
<path d="M26.2231 17.1492C26.3425 17.1042 26.3355 16.9719 26.2161 16.9269L17.5492 13.6601C15.6365 12.9392 13.4375 14.057 13.4375 15.7501V16.8965C13.4375 17.2404 13.7211 17.561 14.1504 17.5673C14.9339 17.5787 15.76 17.2953 16.8821 16.6389C17.9384 16.0025 18.8088 15.6718 19.7214 15.6754C20.6308 15.6789 21.5487 16.0144 22.6992 16.6334C24.2351 17.4597 25.3321 17.4847 26.2231 17.1492Z"/>
<path d="M26.5625 19.9066C26.5625 19.5774 26.1358 19.3591 25.7317 19.4194C25.5698 19.4435 25.4078 19.457 25.2445 19.4594C24.3318 19.4728 23.4117 19.1387 22.2539 18.4612L22.2524 18.4603L22.2509 18.4595C21.2442 17.8528 20.419 17.6238 19.6008 17.6996C18.7759 17.776 17.9258 18.1648 16.8729 18.8653C16.0835 19.3903 15.1587 19.5689 14.234 19.5343C13.8188 19.5188 13.4375 19.7652 13.4375 20.0981C13.4375 20.3255 13.6183 20.5342 13.8985 20.571C14.0241 20.5875 14.149 20.5966 14.274 20.5985C15.0787 20.6102 15.9271 20.3191 17.0796 19.645C18.1644 18.9914 19.0584 18.6518 19.9956 18.6554C20.9295 18.6591 21.8723 19.0037 23.0539 19.6394C24.3734 20.3493 25.3776 20.4833 26.2063 20.3064C26.427 20.2593 26.5625 20.0895 26.5625 19.9066Z"/>
<path d="M26.5625 23.1507C26.5625 22.7891 26.1193 22.5352 25.668 22.5418C24.7306 22.5555 23.7856 22.2124 22.5965 21.5166L22.595 21.5157L22.5935 21.5148C21.5596 20.8917 20.7121 20.6565 19.8717 20.7343C19.0246 20.8128 18.1515 21.2122 17.0701 21.9316C16.0197 22.6302 14.7358 22.7315 13.5213 22.5334C13.4782 22.5264 13.4375 22.5526 13.4375 22.5879C13.4375 22.6093 13.4529 22.6288 13.4771 22.6379L23.4409 26.3935C24.893 26.9408 26.5625 26.0922 26.5625 24.8068V23.1507Z"/>
</mask>
<path d="M17.1369 17.198L14.778 13.2835L14.7775 13.2838L17.1369 17.198ZM17.1355 17.1989L19.4415 21.1447L19.4683 21.1291L19.4949 21.113L17.1355 17.1989ZM17.134 17.1997L14.828 13.2538L14.8258 13.2551L17.134 17.1997ZM14.1434 18.1979L14.0767 22.7678H14.0767L14.1434 18.1979ZM16.5964 18.3198L14.0651 14.5145L14.0651 14.5145L16.5964 18.3198ZM19.5564 17.0709L19.978 21.6217L19.978 21.6217L19.5564 17.0709ZM22.5058 17.9004L20.1475 21.8152L20.1727 21.8304L20.198 21.8452L22.5058 17.9004ZM25.2375 18.8287L25.3042 23.3986H25.3042L25.2375 18.8287ZM19.9937 19.3032L19.9758 23.8735H19.9758L19.9937 19.3032ZM17.3413 20.2192L19.6996 24.134L19.7003 24.1336L17.3413 20.2192ZM17.3398 20.2201L19.6461 24.1658L19.6722 24.1506L19.6981 24.135L17.3398 20.2201ZM17.3383 20.221L15.0319 16.2753L15.0301 16.2764L17.3383 20.221ZM14.2668 21.2462L14.2001 25.816L14.2001 25.816L14.2668 21.2462ZM16.7861 21.3714L14.2548 17.5661L14.2548 17.5661L16.7861 21.3714ZM19.8261 20.0887L20.2478 24.6395H20.2478L19.8261 20.0887ZM22.8552 20.9406L20.4969 24.8554L20.5221 24.8706L20.5475 24.8855L22.8552 20.9406ZM25.6608 21.894L25.594 17.3242H25.594L25.6608 21.894ZM26.214 21.8385L27.0442 26.3328L26.214 21.8385ZM13.9905 21.2318L13.5837 25.784L13.9905 21.2318ZM13.7674 18.8655L13.2221 23.4032H13.2221L13.7674 18.8655ZM13.9657 18.191L13.6736 22.7519L13.9657 18.191ZM13.7665 21.9171L14.3914 17.3897L13.7665 21.9171ZM26.2973 18.639L24.859 14.3009L26.2973 18.639ZM19.7195 16.3061L19.7374 11.7358C17.7431 11.7281 16.1102 12.4807 14.778 13.2835L17.1369 17.198L19.4959 21.1124C19.6644 21.0109 19.7898 20.9432 19.8804 20.8985C19.9703 20.8542 20.0149 20.8381 20.0215 20.8358C20.026 20.8342 19.993 20.846 19.9291 20.8573C19.8632 20.8691 19.785 20.8767 19.7017 20.8764L19.7195 16.3061ZM17.1369 17.198L14.7775 13.2838L14.776 13.2847L17.1355 17.1989L19.4949 21.113L19.4964 21.1122L17.1369 17.198ZM17.1355 17.1989L14.8294 13.253L14.828 13.2538L17.134 17.1997L19.44 21.1456L19.4415 21.1447L17.1355 17.1989ZM17.134 17.1997L14.8258 13.2551C14.4043 13.5017 14.1738 13.5974 14.073 13.6317C13.9978 13.6573 14.0626 13.626 14.2101 13.6281L14.1434 18.1979L14.0767 22.7678C16.2145 22.799 18.0008 21.9877 19.4422 21.1444L17.134 17.1997ZM14.1434 18.1979L14.2101 13.6281C14.2263 13.6284 14.2423 13.629 14.2578 13.63L13.9657 18.191L13.6736 22.7519C13.8073 22.7605 13.9417 22.7658 14.0767 22.7678L14.1434 18.1979ZM13.7674 18.8655L13.2221 23.4032C14.9115 23.6062 17.1232 23.4585 19.1277 22.1251L16.5964 18.3198L14.0651 14.5145C14.257 14.3869 14.4141 14.3483 14.4661 14.3391C14.5082 14.3317 14.4626 14.3459 14.3127 14.3279L13.7674 18.8655ZM16.5964 18.3198L19.1277 22.1251C19.5358 21.8536 19.7937 21.7176 19.948 21.6506C20.0875 21.59 20.0832 21.612 19.978 21.6217L19.5564 17.0709L19.1348 12.5201C17.0581 12.7125 15.3589 13.6539 14.0651 14.5145L16.5964 18.3198ZM19.5564 17.0709L19.978 21.6217C19.9276 21.6264 19.8732 21.6263 19.8212 21.6212C19.7702 21.6162 19.7402 21.6081 19.7366 21.6071C19.7362 21.607 19.8618 21.6431 20.1475 21.8152L22.5058 17.9004L24.864 13.9855C23.2707 13.0257 21.364 12.3135 19.1348 12.5201L19.5564 17.0709ZM22.5058 17.9004L20.198 21.8452C21.6037 22.6675 23.2958 23.4279 25.3042 23.3986L25.2375 18.8287L25.1707 14.2589C25.2665 14.2575 25.3492 14.2658 25.4111 14.2764C25.4705 14.2866 25.4934 14.296 25.4721 14.2887C25.4146 14.2691 25.2162 14.1911 24.8135 13.9555L22.5058 17.9004ZM25.2375 18.8287L25.3042 23.3986C26.1804 23.3858 26.9898 23.2244 27.7355 22.9772L26.2973 18.639L24.859 14.3009C24.8597 14.3007 24.8923 14.29 24.9513 14.2794C25.0119 14.2685 25.0868 14.2601 25.1707 14.2589L25.2375 18.8287ZM26.5625 17.831H21.9922V18.3091H26.5625H31.1328V17.831H26.5625ZM22.8135 20.2257L24.9789 16.2009C23.6183 15.4689 21.9588 14.7406 20.0115 14.733L19.9937 19.3032L19.9758 23.8735C19.8079 23.8729 19.7398 23.8386 19.8337 23.8698C19.9514 23.909 20.1988 24.0087 20.6481 24.2505L22.8135 20.2257ZM19.9937 19.3032L20.0115 14.733C17.996 14.7251 16.3421 15.4853 14.9823 16.3047L17.3413 20.2192L19.7003 24.1336C19.8756 24.028 20.0075 23.9567 20.1043 23.909C20.2004 23.8616 20.2508 23.843 20.2631 23.8387C20.2733 23.8351 20.2458 23.8454 20.1873 23.8559C20.1268 23.8666 20.0539 23.8738 19.9758 23.8735L19.9937 19.3032ZM17.3413 20.2192L14.983 16.3043L14.9814 16.3053L17.3398 20.2201L19.6981 24.135L19.6996 24.134L17.3413 20.2192ZM17.3398 20.2201L15.0335 16.2744L15.0319 16.2753L17.3383 20.221L19.6446 24.1667L19.6461 24.1658L17.3398 20.2201ZM17.3383 20.221L15.0301 16.2764C14.593 16.5321 14.3484 16.6346 14.2343 16.6735C14.146 16.7036 14.1984 16.6744 14.3335 16.6764L14.2668 21.2462L14.2001 25.816C16.3626 25.8476 18.1738 25.0273 19.6464 24.1656L17.3383 20.221ZM14.2668 21.2462L14.3335 16.6764C14.3558 16.6767 14.3772 16.6779 14.3974 16.6797L13.9905 21.2318L13.5837 25.784C13.7875 25.8022 13.9929 25.813 14.2001 25.816L14.2668 21.2462ZM16.7861 21.3714L14.2548 17.5661C14.4429 17.441 14.5913 17.4094 14.6233 17.4041C14.6372 17.4018 14.625 17.405 14.5832 17.4049C14.5414 17.4049 14.4775 17.4016 14.3914 17.3897L13.7665 21.9171L13.1417 26.4445C14.8932 26.6862 17.2185 26.5729 19.3174 25.1767L16.7861 21.3714ZM19.8261 20.0887L19.4045 15.5378C17.3023 15.7326 15.5778 16.686 14.2548 17.5661L16.7861 21.3714L19.3174 25.1767C19.7402 24.8954 20.0116 24.7516 20.1791 24.6789C20.3318 24.6125 20.3402 24.6309 20.2478 24.6395L19.8261 20.0887ZM22.8552 20.9406L25.2135 17.0257C23.5913 16.0485 21.6595 15.3289 19.4045 15.5378L19.8261 20.0887L20.2478 24.6395C20.2038 24.6436 20.1557 24.6435 20.1102 24.639C20.0656 24.6347 20.042 24.6279 20.0451 24.6287C20.0578 24.6323 20.1968 24.6746 20.4969 24.8554L22.8552 20.9406ZM25.6608 21.894L25.594 17.3242C25.6845 17.3229 25.7618 17.3307 25.8182 17.3404C25.8721 17.3496 25.8892 17.3575 25.8619 17.3483C25.7924 17.3246 25.5808 17.2401 25.1629 16.9957L22.8552 20.9406L20.5475 24.8855C21.9834 25.7255 23.698 26.4935 25.7275 26.4639L25.6608 21.894ZM26.214 21.8385L25.3839 17.3442C25.4402 17.3338 25.5122 17.3254 25.594 17.3242L25.6608 21.894L25.7275 26.4639C26.1768 26.4573 26.6156 26.4119 27.0442 26.3328L26.214 21.8385ZM26.214 21.8385L27.0442 26.3328C29.0647 25.9596 31.1328 24.1899 31.1328 21.4657H26.5625H21.9922C21.9922 19.0902 23.7878 17.639 25.3839 17.3442L26.214 21.8385ZM13.9905 21.2318L14.3974 16.6797C13.3153 16.583 12.162 16.8236 11.1587 17.4608C10.1625 18.0934 8.86719 19.4705 8.86719 21.5945H13.4375H18.0078C18.0078 23.4922 16.8487 24.6754 16.0588 25.177C15.2618 25.6831 14.385 25.8556 13.5837 25.784L13.9905 21.2318ZM26.395 17.7483L28.006 22.0253C26.8112 22.4753 25.5451 22.3701 24.5002 21.8592C23.487 21.3639 21.9922 20.0577 21.9922 17.831H26.5625H31.1328C31.1328 15.5363 29.5926 14.1744 28.5149 13.6475C27.4054 13.1051 26.0556 12.9925 24.7841 13.4714L26.395 17.7483ZM13.4375 18.5486H8.86719C8.86719 21.5902 11.3486 23.178 13.2221 23.4032L13.7674 18.8655L14.3127 14.3279C15.7993 14.5065 18.0078 15.8203 18.0078 18.5486H13.4375ZM13.9657 18.191L14.2578 13.63C13.2038 13.5625 12.0769 13.8154 11.0946 14.4594C10.1162 15.1007 8.86719 16.4675 8.86719 18.5486H13.4375H18.0078C18.0078 20.4121 16.8876 21.5914 16.1056 22.104C15.3196 22.6192 14.4569 22.8021 13.6736 22.7519L13.9657 18.191ZM13.4375 21.5945H8.86719C8.86719 24.5933 11.2878 26.1886 13.1417 26.4445L13.7665 21.9171L14.3914 17.3897C15.8576 17.592 18.0078 18.9107 18.0078 21.5945H13.4375ZM26.2973 18.639L27.7355 22.9772C29.4491 22.4091 31.1328 20.7404 31.1328 18.3091H26.5625H21.9922C21.9922 16.1636 23.4752 14.7597 24.859 14.3009L26.2973 18.639ZM14.1504 17.5673L14.017 26.7069L14.017 26.7069L14.1504 17.5673ZM16.8821 16.6389L21.4975 24.5286L21.5485 24.4988L21.5991 24.4684L16.8821 16.6389ZM19.7214 15.6754L19.7571 6.53482L19.7214 15.6754ZM22.6992 16.6334L18.3684 24.683L18.3684 24.683L22.6992 16.6334ZM26.2231 17.1492L23.0012 8.59517L23.0012 8.59517L26.2231 17.1492ZM25.2445 19.4594L25.3779 28.5991H25.3779L25.2445 19.4594ZM22.2539 18.4612L17.637 26.3502L17.6375 26.3505L22.2539 18.4612ZM22.2524 18.4603L17.5327 26.2882L17.5839 26.3191L17.6355 26.3493L22.2524 18.4603ZM22.2509 18.4595L26.9706 10.6316L26.9689 10.6306L22.2509 18.4595ZM19.6008 17.6996L20.444 26.8012L20.4441 26.8012L19.6008 17.6996ZM16.8729 18.8653L21.9354 26.4759V26.4759L16.8729 18.8653ZM14.274 20.5985L14.1406 29.7381H14.1406L14.274 20.5985ZM17.0796 19.645L21.695 27.5348L21.746 27.5049L21.7965 27.4745L17.0796 19.645ZM19.9956 18.6554L19.9599 27.796H19.9599L19.9956 18.6554ZM23.0539 19.6394L27.3846 11.5898L27.3846 11.5898L23.0539 19.6394ZM25.668 22.5418L25.5345 13.4021L25.5345 13.4021L25.668 22.5418ZM22.5965 21.5166L27.2129 13.6273L27.2092 13.6252L22.5965 21.5166ZM22.595 21.5157L17.8825 29.3479L17.9322 29.3778L17.9824 29.4071L22.595 21.5157ZM22.5935 21.5148L17.8755 29.3437L17.8809 29.347L22.5935 21.5148ZM19.8717 20.7343L19.0284 11.6327L19.0284 11.6327L19.8717 20.7343ZM17.0701 21.9316L22.1326 29.5422L22.1326 29.5422L17.0701 21.9316ZM13.5213 22.5334L14.9929 13.512L14.9929 13.512L13.5213 22.5334ZM23.4409 26.3935L20.217 34.9467H20.217L23.4409 26.3935ZM13.4771 22.6379L16.701 14.0847L16.701 14.0847L13.4771 22.6379ZM26.2063 20.3064L24.2979 11.3672L26.2063 20.3064ZM13.8985 20.571L15.0875 11.508L13.8985 20.571ZM14.234 19.5343L13.8929 28.6686L14.234 19.5343ZM17.5492 13.6601L14.3253 22.2133L17.5492 13.6601ZM25.7317 19.4194L27.081 28.4599L25.7317 19.4194ZM26.2161 16.9269L22.9922 25.4801L26.2161 16.9269ZM17.5492 13.6601L14.3253 22.2133L22.9922 25.4801L26.2161 16.9269L29.44 8.37367L20.7731 5.10693L17.5492 13.6601ZM13.4375 16.8965H22.5781V15.7501H13.4375H4.29688V16.8965H13.4375ZM14.1504 17.5673L14.017 26.7069C17.2502 26.7541 19.8084 25.5168 21.4975 24.5286L16.8821 16.6389L12.2667 8.74907C12.0222 8.89206 12.1126 8.81327 12.4422 8.701C12.8288 8.56931 13.4718 8.41575 14.2838 8.4276L14.1504 17.5673ZM16.8821 16.6389L21.5991 24.4684C21.8042 24.3448 21.6963 24.4326 21.3664 24.5477C20.9817 24.6819 20.3965 24.8187 19.6857 24.8159L19.7214 15.6754L19.7571 6.53482C16.4291 6.52183 13.8499 7.79436 12.1651 8.80936L16.8821 16.6389ZM19.7214 15.6754L19.6857 24.8159C18.9932 24.8132 18.4817 24.679 18.2394 24.5985C18.0408 24.5325 18.0468 24.5099 18.3684 24.683L22.6992 16.6334L27.0299 8.58384C25.4672 7.74306 22.938 6.54725 19.7571 6.53482L19.7214 15.6754ZM22.6992 16.6334L18.3684 24.683C21.6116 26.4278 25.4922 27.1919 29.445 25.7031L26.2231 17.1492L23.0012 8.59517C23.8726 8.26696 24.8425 8.14033 25.7654 8.24832C26.6002 8.34602 27.0512 8.5953 27.0299 8.58384L22.6992 16.6334ZM25.7317 19.4194L24.3825 10.3789C24.6118 10.3447 24.856 10.3235 25.111 10.3198L25.2445 19.4594L25.3779 28.5991C25.9596 28.5906 26.5278 28.5424 27.081 28.4599L25.7317 19.4194ZM25.2445 19.4594L25.111 10.3198C25.8624 10.3088 26.4501 10.4517 26.7887 10.5671C27.0758 10.6649 27.1343 10.7265 26.8702 10.572L22.2539 18.4612L17.6375 26.3505C19.3624 27.3598 22.015 28.6482 25.3779 28.5991L25.2445 19.4594ZM22.2539 18.4612L26.8707 10.5722L26.8692 10.5714L22.2524 18.4603L17.6355 26.3493L17.637 26.3502L22.2539 18.4612ZM22.2524 18.4603L26.972 10.6325L26.9706 10.6316L22.2509 18.4595L17.5313 26.2874L17.5327 26.2882L22.2524 18.4603ZM22.2509 18.4595L26.9689 10.6306C24.9111 9.39049 22.1318 8.2853 18.7575 8.59793L19.6008 17.6996L20.4441 26.8012C19.6707 26.8729 18.9479 26.7844 18.3535 26.6152C18.0796 26.5373 17.8717 26.4533 17.7366 26.3917C17.6035 26.3311 17.5335 26.2887 17.533 26.2884L22.2509 18.4595ZM19.6008 17.6996L18.7575 8.59793C15.6688 8.8841 13.2885 10.2714 11.8103 11.2547L16.8729 18.8653L21.9354 26.4759C22.1949 26.3033 22.1799 26.3385 21.9648 26.432C21.718 26.5392 21.188 26.7323 20.444 26.8012L19.6008 17.6996ZM16.8729 18.8653L11.8103 11.2547C13.0299 10.4434 14.1457 10.3841 14.5752 10.4001L14.234 19.5343L13.8929 28.6686C16.1717 28.7537 19.1371 28.3373 21.9354 26.4759L16.8729 18.8653ZM13.8985 20.571L12.7094 29.6339C13.1792 29.6956 13.6566 29.731 14.1406 29.7381L14.274 20.5985L14.4075 11.4588C14.6414 11.4622 14.869 11.4794 15.0875 11.508L13.8985 20.571ZM14.274 20.5985L14.1406 29.7381C17.395 29.7856 19.9756 28.5406 21.695 27.5348L17.0796 19.645L12.4641 11.7552C12.2045 11.907 12.2817 11.8346 12.5993 11.7264C12.9739 11.5988 13.606 11.4471 14.4074 11.4588L14.274 20.5985ZM17.0796 19.645L21.7965 27.4745C22.0159 27.3423 21.9211 27.4236 21.6037 27.5343C21.2316 27.6641 20.6584 27.7987 19.9599 27.796L19.9956 18.6554L20.0313 9.51489C16.6786 9.50179 14.0759 10.7833 12.3626 11.8155L17.0796 19.645ZM19.9956 18.6554L19.9599 27.796C19.2797 27.7933 18.7806 27.6614 18.5514 27.5853C18.3659 27.5237 18.3859 27.5075 18.7231 27.6889L23.0539 19.6394L27.3846 11.5898C25.7908 10.7323 23.2367 9.5274 20.0313 9.51489L19.9956 18.6554ZM23.0539 19.6394L18.7231 27.6889C21.3569 29.1059 24.5888 29.9983 28.1146 29.2456L26.2063 20.3064L24.2979 11.3672C25.138 11.1879 25.9185 11.2095 26.5439 11.33C27.1217 11.4413 27.4175 11.6075 27.3846 11.5898L23.0539 19.6394ZM22.5965 21.5166L17.9802 29.4058C19.7364 30.4335 22.4138 31.7309 25.8014 31.6814L25.668 22.5418L25.5345 13.4021C26.2735 13.3913 26.8489 13.5321 27.1743 13.6429C27.4481 13.7362 27.4926 13.791 27.2129 13.6273L22.5965 21.5166ZM22.595 21.5157L17.9824 29.4071L17.9839 29.408L22.5965 21.5166L27.2092 13.6252L27.2076 13.6243L22.595 21.5157ZM22.5935 21.5148L17.8809 29.347L17.8825 29.3479L22.595 21.5157L27.3075 13.6835L27.306 13.6826L22.5935 21.5148ZM19.8717 20.7343L20.715 29.836C19.9527 29.9066 19.241 29.8191 18.6583 29.6533C18.1297 29.5029 17.8513 29.3291 17.8755 29.3437L22.5935 21.5148L27.3115 13.6859C25.2265 12.4294 22.4248 11.318 19.0284 11.6327L19.8717 20.7343ZM17.0701 21.9316L22.1326 29.5422C22.4063 29.3601 22.4042 29.3879 22.2012 29.4762C21.9665 29.5781 21.4478 29.7681 20.715 29.836L19.8717 20.7343L19.0284 11.6327C15.9174 11.9209 13.5141 13.3187 12.0075 14.321L17.0701 21.9316ZM13.5213 22.5334L12.0498 31.5548C14.5857 31.9685 18.4824 31.9703 22.1326 29.5422L17.0701 21.9316L12.0075 14.321C13.5571 13.2902 14.8859 13.4946 14.9929 13.512L13.5213 22.5334ZM23.4409 26.3935L26.6648 17.8403L16.701 14.0847L13.4771 22.6379L10.2532 31.1911L20.217 34.9467L23.4409 26.3935ZM26.5625 23.1507H17.4219V24.8068H26.5625H35.7031V23.1507H26.5625ZM13.5213 22.5334L14.9929 13.512C12.7952 13.1536 10.4676 13.5941 8.49284 14.8737C6.52184 16.1508 4.29688 18.7744 4.29688 22.5879H13.4375H22.5781C22.5781 26.3661 20.3735 28.959 18.4336 30.2159C16.49 31.4753 14.2043 31.9062 12.0498 31.5548L13.5213 22.5334ZM25.668 22.5418L25.8014 31.6814C24.4053 31.7018 22.8231 31.3526 21.3301 30.3897C19.8718 29.4491 17.4219 27.0884 17.4219 23.1507H26.5625H35.7031C35.7031 18.8513 33.0316 16.1829 31.2388 15.0267C29.4114 13.8481 27.382 13.3752 25.5345 13.4021L25.668 22.5418ZM23.4409 26.3935L20.217 34.9467C23.4433 36.1628 26.8941 35.856 29.688 34.4358C32.4352 33.0395 35.7031 29.8118 35.7031 24.8068H26.5625H17.4219C17.4219 21.0872 19.8551 18.9265 21.4044 18.139C23.0006 17.3277 24.8905 17.1715 26.6648 17.8403L23.4409 26.3935ZM13.4375 22.5879H4.29688C4.29688 27.3295 7.61004 30.1948 10.2532 31.1911L13.4771 22.6379L16.701 14.0847C19.2958 15.0627 22.5781 17.8891 22.5781 22.5879H13.4375ZM26.2063 20.3064L28.1146 29.2456C32.0532 28.4048 35.7031 24.8937 35.7031 19.9066H26.5625H17.4219C17.4219 15.2854 20.8008 12.1138 24.2979 11.3672L26.2063 20.3064ZM13.4375 20.0981H4.29688C4.29688 25.4714 8.45478 29.0757 12.7094 29.6339L13.8985 20.571L15.0875 11.508C18.7818 11.9927 22.5781 15.1796 22.5781 20.0981H13.4375ZM14.234 19.5343L14.5752 10.4001C12.5592 10.3248 10.392 10.8532 8.50048 12.1541C6.60326 13.4589 4.29688 16.1334 4.29688 20.0981H13.4375H22.5781C22.5781 23.7298 20.4624 26.1148 18.8597 27.217C17.2626 28.3154 15.4937 28.7284 13.8929 28.6686L14.234 19.5343ZM13.4375 16.8965H4.29688C4.29688 22.405 8.76212 26.6302 14.017 26.7069L14.1504 17.5673L14.2838 8.4276C18.6801 8.49179 22.5781 12.0758 22.5781 16.8965H13.4375ZM17.5492 13.6601L20.7731 5.10693C17.3165 3.80404 13.6182 4.13474 10.6343 5.65144C7.69722 7.14435 4.29688 10.5413 4.29688 15.7501H13.4375H22.5781C22.5781 19.2658 20.2773 21.2573 18.9179 21.9483C17.5117 22.663 15.8693 22.7953 14.3253 22.2133L17.5492 13.6601ZM25.7317 19.4194L27.081 28.4599C25.3606 28.7166 23.509 28.4328 21.8259 27.4885C20.2001 26.5763 17.4219 24.1412 17.4219 19.9066H26.5625H35.7031C35.7031 15.3428 32.7115 12.634 30.7714 11.5454C28.7739 10.4246 26.507 10.0618 24.3825 10.3789L25.7317 19.4194ZM26.2161 16.9269L22.9922 25.4801C20.3372 24.4794 17.3476 21.7392 17.1757 17.4C16.994 12.8155 20.0696 9.69939 23.0012 8.59517L26.2231 17.1492L29.4449 25.7031C32.496 24.5539 35.6278 21.3492 35.4426 16.6761C35.2671 12.2482 32.2144 9.4194 29.44 8.37367L26.2161 16.9269Z" fill="white" mask="url(#path-3-inside-1_571_6648)"/>
<defs>
<linearGradient id="paint0_linear_571_6648" x1="31.25" y1="8.75" x2="12.2656" y2="31.25" gradientUnits="userSpaceOnUse">
<stop offset="0.00520833" stop-color="#A19DF1"/>
<stop offset="1" stop-color="#5F57FF"/>
</linearGradient>
<linearGradient id="paint1_linear_571_6648" x1="10.1562" y1="9.45312" x2="29.8437" y2="30.5469" gradientUnits="userSpaceOnUse">
<stop stop-color="#AA9DFB"/>
<stop offset="0.46875" stop-color="white" stop-opacity="0"/>
<stop offset="1" stop-color="#A29DFB"/>
</linearGradient>
</defs>
</svg>
