<svg width="40" height="40" viewBox="0 0 40 40" fill="none" xmlns="http://www.w3.org/2000/svg">
<rect width="40" height="40" rx="5" fill="#E6F8FB"/>
<path fill-rule="evenodd" clip-rule="evenodd" d="M14.0502 25.5809C14.0502 25.5809 12.9865 23.6216 13.7963 21.9524C14.4971 20.5073 15.4299 20.0596 15.9009 19.8478C16.3719 19.6361 23.7382 17.0176 23.7382 17.0176C23.7382 17.0176 25.0936 16.4854 26.3508 17.1627C27.4789 17.7705 27.9057 18.3723 28.2013 19.3036C29.0062 21.8391 26.8642 23.2631 26.024 23.6215C25.4243 23.8773 23.7743 24.5649 23.7743 24.5649C23.7743 24.5649 23.509 23.3498 21.9238 22.4966C21.3237 22.1737 20.3493 21.8992 19.7104 21.8435C17.9865 21.6932 15.9598 22.6318 15.1019 23.7666C14.2201 24.9341 14.0502 25.5809 14.0502 25.5809Z" fill="#3A358C"/>
<path d="M19.2201 32.0001C21.7347 32.0001 23.7731 29.9612 23.7731 27.4462C23.7731 24.9312 21.7347 22.8923 19.2201 22.8923C16.7055 22.8923 14.667 24.9312 14.667 27.4462C14.667 29.9612 16.7055 32.0001 19.2201 32.0001Z" fill="#85BF4B"/>
<path fill-rule="evenodd" clip-rule="evenodd" d="M12.8892 22.3101C12.8892 22.3101 10.9642 17.0086 10.8935 16.577C10.8228 16.1453 10.3901 13.2082 13.4698 12.1139C16.788 10.9347 24.3554 8.23132 24.3554 8.23132C24.3554 8.23132 27.6716 6.99797 28.9273 10.227C29.9213 12.783 27.5122 14.3998 27.5122 14.3998C27.2249 14.5746 26.9211 14.7205 26.6051 14.8353C26.2982 14.9471 15.3566 18.8992 15.3566 18.8992C14.3978 19.3041 13.5463 19.8626 13.0457 21.2499C12.9272 21.5903 12.8741 21.95 12.8892 22.3101Z" fill="#50BFBF"/>
</svg>
