<svg width="40" height="40" viewBox="0 0 40 40" fill="none" xmlns="http://www.w3.org/2000/svg">
<rect width="40" height="40" rx="5" fill="#F2FBFC"/>
<path d="M20.0023 8.75C13.787 8.75 8.75 13.7878 8.75 20.0008C8.75 26.2138 13.787 31.25 20.0023 31.25C26.2177 31.25 31.25 26.2123 31.25 20.0008C31.25 13.7894 26.2131 8.75 20.0023 8.75ZM21.1116 14.8169C21.1685 14.7323 21.2284 14.6539 21.327 14.6539H24.4485C24.6146 14.6539 24.7285 14.8292 24.6562 14.9769C23.6654 17.0289 21.6423 17.5227 19.35 17.9365C19.1715 17.9688 19.0439 17.7673 19.1516 17.6211C19.7223 16.8427 20.4223 15.846 21.11 14.8169H21.1116ZM24.6562 25.8277H21.5946C21.5162 25.8277 21.4408 25.7861 21.4008 25.7201L17.9838 19.4516C17.8808 19.2855 17.63 19.3163 17.5715 19.5039L16.7054 22.2559C16.6761 22.3497 16.5869 22.4159 16.49 22.4159H15.8223C15.6962 22.4159 15.5946 22.3128 15.5946 22.1882V14.8815C15.5946 14.7553 15.6977 14.6539 15.8223 14.6539H18.6316C18.7824 14.6539 18.8915 14.8 18.8516 14.9445L17.8146 18.6564C17.7407 18.8456 18.0208 19.0578 18.1654 18.9071C18.2685 18.7748 18.367 18.6487 18.4608 18.5271C18.5547 18.4056 18.73 18.4041 18.8285 18.5179L24.8116 25.4323C24.9624 25.5723 24.8639 25.8292 24.6547 25.8292L24.6562 25.8277Z" fill="#03045E"/>
</svg>
