<svg width="40" height="40" viewBox="0 0 40 40" fill="none" xmlns="http://www.w3.org/2000/svg">
<rect width="40" height="40" rx="5" fill="#EEEBFF"/>
<path d="M26.7304 16.0351L24.866 12.6178C24.7693 12.4404 24.6336 12.2874 24.469 12.1702C24.3044 12.0531 24.1154 11.9749 23.9161 11.9416C23.7169 11.9083 23.5127 11.9207 23.319 11.978C23.1253 12.0352 22.9471 12.1358 22.798 12.2721L14.1186 20.2013C14.0602 20.2545 14.0194 20.3242 14.0014 20.4011C13.9833 20.4779 13.989 20.5585 14.0176 20.6321C14.0462 20.7057 14.0963 20.7689 14.1615 20.8135C14.2267 20.8581 14.3038 20.8819 14.3828 20.8818H15.539C17.6606 20.8818 18.8745 23.3017 17.606 25.0024L11.1734 33.622C10.8278 34.0849 11.4158 34.665 11.8737 34.3174L24.9902 24.2543C26.2131 23.3173 27.0606 21.9738 27.3798 20.4665C27.6989 18.9592 27.4686 17.3874 26.7304 16.0351Z" fill="#695ACD"/>
</svg>
