<svg width="65" height="70" viewBox="0 0 65 70" fill="none" xmlns="http://www.w3.org/2000/svg">
<path d="M48.8013 19.0477L44.6348 11.4111C44.4187 11.0147 44.1153 10.6726 43.7475 10.4108C43.3797 10.149 42.9573 9.97429 42.512 9.89987C42.0668 9.82544 41.6104 9.85326 41.1775 9.98123C40.7446 10.1092 40.3465 10.334 40.0132 10.6385L20.6169 28.3583C20.4866 28.4772 20.3953 28.6328 20.3551 28.8046C20.3148 28.9764 20.3274 29.1564 20.3913 29.3209C20.4552 29.4854 20.5673 29.6267 20.7129 29.7263C20.8586 29.8259 21.031 29.8791 21.2074 29.8789L23.7912 29.8789C28.5326 29.8789 31.2452 35.2868 28.4105 39.0874L14.0354 58.35C13.2629 59.3845 14.577 60.681 15.6003 59.904L44.9122 37.4157C47.6451 35.3216 49.5391 32.3192 50.2523 28.9508C50.9655 25.5824 50.4508 22.0699 48.8013 19.0477Z" fill="#695ACD"/>
</svg>
